<mxfile host="app.diagrams.net" modified="2021-07-01T18:42:56.551Z" agent="5.0 (X11; Linux x86_64) AppleWebKit/537.36 (KHTML, like Gecko) Chrome/91.0.4472.114 Safari/537.36" etag="fe0zLr85x0N9HS8rav-e" version="14.8.1" type="github">
  <diagram id="xsKJ_jy6JtCYTuU1OG9f" name="Page-1">
    <mxGraphModel dx="970" dy="718" grid="1" gridSize="10" guides="1" tooltips="1" connect="1" arrows="1" fold="1" page="1" pageScale="1" pageWidth="827" pageHeight="1169" math="0" shadow="0">
      <root>
        <mxCell id="0" />
        <mxCell id="1" parent="0" />
        <mxCell id="wvHNVq-SnZiuIiHJVOZg-15" style="edgeStyle=orthogonalEdgeStyle;rounded=0;orthogonalLoop=1;jettySize=auto;html=1;exitX=0;exitY=1;exitDx=0;exitDy=0;" edge="1" parent="1" source="wvHNVq-SnZiuIiHJVOZg-1" target="wvHNVq-SnZiuIiHJVOZg-2">
          <mxGeometry relative="1" as="geometry" />
        </mxCell>
        <mxCell id="wvHNVq-SnZiuIiHJVOZg-16" style="edgeStyle=orthogonalEdgeStyle;rounded=0;orthogonalLoop=1;jettySize=auto;html=1;exitX=0.5;exitY=1;exitDx=0;exitDy=0;entryX=0.5;entryY=0;entryDx=0;entryDy=0;" edge="1" parent="1" source="wvHNVq-SnZiuIiHJVOZg-1" target="wvHNVq-SnZiuIiHJVOZg-3">
          <mxGeometry relative="1" as="geometry" />
        </mxCell>
        <mxCell id="wvHNVq-SnZiuIiHJVOZg-17" style="edgeStyle=orthogonalEdgeStyle;rounded=0;orthogonalLoop=1;jettySize=auto;html=1;exitX=1;exitY=0.5;exitDx=0;exitDy=0;" edge="1" parent="1" source="wvHNVq-SnZiuIiHJVOZg-1" target="wvHNVq-SnZiuIiHJVOZg-4">
          <mxGeometry relative="1" as="geometry" />
        </mxCell>
        <mxCell id="wvHNVq-SnZiuIiHJVOZg-1" value="" style="ellipse;whiteSpace=wrap;html=1;aspect=fixed;" vertex="1" parent="1">
          <mxGeometry x="454" y="40" width="40" height="40" as="geometry" />
        </mxCell>
        <mxCell id="wvHNVq-SnZiuIiHJVOZg-22" style="edgeStyle=orthogonalEdgeStyle;rounded=0;orthogonalLoop=1;jettySize=auto;html=1;exitX=1;exitY=1;exitDx=0;exitDy=0;entryX=0.5;entryY=0;entryDx=0;entryDy=0;" edge="1" parent="1" source="wvHNVq-SnZiuIiHJVOZg-2" target="wvHNVq-SnZiuIiHJVOZg-6">
          <mxGeometry relative="1" as="geometry" />
        </mxCell>
        <mxCell id="wvHNVq-SnZiuIiHJVOZg-2" value="" style="ellipse;whiteSpace=wrap;html=1;aspect=fixed;" vertex="1" parent="1">
          <mxGeometry x="320" y="120" width="40" height="40" as="geometry" />
        </mxCell>
        <mxCell id="wvHNVq-SnZiuIiHJVOZg-18" style="edgeStyle=orthogonalEdgeStyle;rounded=0;orthogonalLoop=1;jettySize=auto;html=1;exitX=0;exitY=1;exitDx=0;exitDy=0;entryX=0.5;entryY=0;entryDx=0;entryDy=0;" edge="1" parent="1" source="wvHNVq-SnZiuIiHJVOZg-3" target="wvHNVq-SnZiuIiHJVOZg-7">
          <mxGeometry relative="1" as="geometry" />
        </mxCell>
        <mxCell id="wvHNVq-SnZiuIiHJVOZg-19" style="edgeStyle=orthogonalEdgeStyle;rounded=0;orthogonalLoop=1;jettySize=auto;html=1;exitX=0.5;exitY=1;exitDx=0;exitDy=0;entryX=0.5;entryY=0;entryDx=0;entryDy=0;" edge="1" parent="1" source="wvHNVq-SnZiuIiHJVOZg-3" target="wvHNVq-SnZiuIiHJVOZg-8">
          <mxGeometry relative="1" as="geometry" />
        </mxCell>
        <mxCell id="wvHNVq-SnZiuIiHJVOZg-20" style="edgeStyle=orthogonalEdgeStyle;rounded=0;orthogonalLoop=1;jettySize=auto;html=1;exitX=1;exitY=0.5;exitDx=0;exitDy=0;entryX=0.225;entryY=-0.025;entryDx=0;entryDy=0;entryPerimeter=0;" edge="1" parent="1" source="wvHNVq-SnZiuIiHJVOZg-3" target="wvHNVq-SnZiuIiHJVOZg-9">
          <mxGeometry relative="1" as="geometry" />
        </mxCell>
        <mxCell id="wvHNVq-SnZiuIiHJVOZg-3" value="" style="ellipse;whiteSpace=wrap;html=1;aspect=fixed;" vertex="1" parent="1">
          <mxGeometry x="454" y="120" width="40" height="40" as="geometry" />
        </mxCell>
        <mxCell id="wvHNVq-SnZiuIiHJVOZg-21" style="edgeStyle=orthogonalEdgeStyle;rounded=0;orthogonalLoop=1;jettySize=auto;html=1;exitX=0.5;exitY=1;exitDx=0;exitDy=0;entryX=0;entryY=0;entryDx=0;entryDy=0;" edge="1" parent="1" source="wvHNVq-SnZiuIiHJVOZg-4" target="wvHNVq-SnZiuIiHJVOZg-10">
          <mxGeometry relative="1" as="geometry" />
        </mxCell>
        <mxCell id="wvHNVq-SnZiuIiHJVOZg-4" value="" style="ellipse;whiteSpace=wrap;html=1;aspect=fixed;" vertex="1" parent="1">
          <mxGeometry x="580" y="120" width="40" height="40" as="geometry" />
        </mxCell>
        <mxCell id="wvHNVq-SnZiuIiHJVOZg-23" style="edgeStyle=orthogonalEdgeStyle;rounded=0;orthogonalLoop=1;jettySize=auto;html=1;exitX=0.5;exitY=1;exitDx=0;exitDy=0;entryX=0.5;entryY=0;entryDx=0;entryDy=0;" edge="1" parent="1" source="wvHNVq-SnZiuIiHJVOZg-6" target="wvHNVq-SnZiuIiHJVOZg-13">
          <mxGeometry relative="1" as="geometry" />
        </mxCell>
        <mxCell id="wvHNVq-SnZiuIiHJVOZg-6" value="" style="ellipse;whiteSpace=wrap;html=1;aspect=fixed;" vertex="1" parent="1">
          <mxGeometry x="360" y="200" width="40" height="40" as="geometry" />
        </mxCell>
        <mxCell id="wvHNVq-SnZiuIiHJVOZg-7" value="" style="ellipse;whiteSpace=wrap;html=1;aspect=fixed;" vertex="1" parent="1">
          <mxGeometry x="414" y="200" width="40" height="40" as="geometry" />
        </mxCell>
        <mxCell id="wvHNVq-SnZiuIiHJVOZg-25" style="edgeStyle=orthogonalEdgeStyle;rounded=0;orthogonalLoop=1;jettySize=auto;html=1;exitX=0.5;exitY=1;exitDx=0;exitDy=0;" edge="1" parent="1" source="wvHNVq-SnZiuIiHJVOZg-8" target="wvHNVq-SnZiuIiHJVOZg-12">
          <mxGeometry relative="1" as="geometry" />
        </mxCell>
        <mxCell id="wvHNVq-SnZiuIiHJVOZg-26" style="edgeStyle=orthogonalEdgeStyle;rounded=0;orthogonalLoop=1;jettySize=auto;html=1;exitX=1;exitY=1;exitDx=0;exitDy=0;entryX=0;entryY=0;entryDx=0;entryDy=0;" edge="1" parent="1" source="wvHNVq-SnZiuIiHJVOZg-8" target="wvHNVq-SnZiuIiHJVOZg-11">
          <mxGeometry relative="1" as="geometry" />
        </mxCell>
        <mxCell id="wvHNVq-SnZiuIiHJVOZg-8" value="" style="ellipse;whiteSpace=wrap;html=1;aspect=fixed;" vertex="1" parent="1">
          <mxGeometry x="470" y="200" width="40" height="40" as="geometry" />
        </mxCell>
        <mxCell id="wvHNVq-SnZiuIiHJVOZg-9" value="" style="ellipse;whiteSpace=wrap;html=1;aspect=fixed;" vertex="1" parent="1">
          <mxGeometry x="540" y="200" width="40" height="40" as="geometry" />
        </mxCell>
        <mxCell id="wvHNVq-SnZiuIiHJVOZg-27" style="edgeStyle=orthogonalEdgeStyle;rounded=0;orthogonalLoop=1;jettySize=auto;html=1;exitX=0.5;exitY=1;exitDx=0;exitDy=0;entryX=0.5;entryY=0;entryDx=0;entryDy=0;" edge="1" parent="1" source="wvHNVq-SnZiuIiHJVOZg-10" target="wvHNVq-SnZiuIiHJVOZg-14">
          <mxGeometry relative="1" as="geometry" />
        </mxCell>
        <mxCell id="wvHNVq-SnZiuIiHJVOZg-10" value="" style="ellipse;whiteSpace=wrap;html=1;aspect=fixed;" vertex="1" parent="1">
          <mxGeometry x="630" y="200" width="40" height="40" as="geometry" />
        </mxCell>
        <mxCell id="wvHNVq-SnZiuIiHJVOZg-11" value="" style="ellipse;whiteSpace=wrap;html=1;aspect=fixed;" vertex="1" parent="1">
          <mxGeometry x="510" y="280" width="40" height="40" as="geometry" />
        </mxCell>
        <mxCell id="wvHNVq-SnZiuIiHJVOZg-12" value="" style="ellipse;whiteSpace=wrap;html=1;aspect=fixed;" vertex="1" parent="1">
          <mxGeometry x="450" y="280" width="40" height="40" as="geometry" />
        </mxCell>
        <mxCell id="wvHNVq-SnZiuIiHJVOZg-13" value="" style="ellipse;whiteSpace=wrap;html=1;aspect=fixed;" vertex="1" parent="1">
          <mxGeometry x="360" y="270" width="40" height="40" as="geometry" />
        </mxCell>
        <mxCell id="wvHNVq-SnZiuIiHJVOZg-14" value="" style="ellipse;whiteSpace=wrap;html=1;aspect=fixed;" vertex="1" parent="1">
          <mxGeometry x="650" y="270" width="40" height="40" as="geometry" />
        </mxCell>
        <mxCell id="wvHNVq-SnZiuIiHJVOZg-28" value="100" style="text;html=1;align=center;verticalAlign=middle;resizable=0;points=[];autosize=1;strokeColor=none;" vertex="1" parent="1">
          <mxGeometry x="340" y="330" width="40" height="20" as="geometry" />
        </mxCell>
        <mxCell id="wvHNVq-SnZiuIiHJVOZg-29" value="10" style="text;html=1;align=center;verticalAlign=middle;resizable=0;points=[];autosize=1;strokeColor=none;" vertex="1" parent="1">
          <mxGeometry x="425" y="330" width="30" height="20" as="geometry" />
        </mxCell>
        <mxCell id="wvHNVq-SnZiuIiHJVOZg-30" value="80" style="text;html=1;align=center;verticalAlign=middle;resizable=0;points=[];autosize=1;strokeColor=none;" vertex="1" parent="1">
          <mxGeometry x="515" y="340" width="30" height="20" as="geometry" />
        </mxCell>
        <mxCell id="wvHNVq-SnZiuIiHJVOZg-31" value="-12" style="text;html=1;align=center;verticalAlign=middle;resizable=0;points=[];autosize=1;strokeColor=none;" vertex="1" parent="1">
          <mxGeometry x="415" y="240" width="30" height="20" as="geometry" />
        </mxCell>
        <mxCell id="wvHNVq-SnZiuIiHJVOZg-32" value="3" style="text;html=1;align=center;verticalAlign=middle;resizable=0;points=[];autosize=1;strokeColor=none;" vertex="1" parent="1">
          <mxGeometry x="560" y="240" width="20" height="20" as="geometry" />
        </mxCell>
        <mxCell id="wvHNVq-SnZiuIiHJVOZg-33" value="4" style="text;html=1;align=center;verticalAlign=middle;resizable=0;points=[];autosize=1;strokeColor=none;" vertex="1" parent="1">
          <mxGeometry x="660" y="320" width="20" height="20" as="geometry" />
        </mxCell>
        <mxCell id="wvHNVq-SnZiuIiHJVOZg-34" value="min" style="text;html=1;align=center;verticalAlign=middle;resizable=0;points=[];autosize=1;strokeColor=none;" vertex="1" parent="1">
          <mxGeometry x="245" y="290" width="30" height="20" as="geometry" />
        </mxCell>
        <mxCell id="wvHNVq-SnZiuIiHJVOZg-35" value="max" style="text;html=1;align=center;verticalAlign=middle;resizable=0;points=[];autosize=1;strokeColor=none;" vertex="1" parent="1">
          <mxGeometry x="230" y="220" width="40" height="20" as="geometry" />
        </mxCell>
        <mxCell id="wvHNVq-SnZiuIiHJVOZg-36" value="min" style="text;html=1;align=center;verticalAlign=middle;resizable=0;points=[];autosize=1;strokeColor=none;" vertex="1" parent="1">
          <mxGeometry x="235" y="150" width="30" height="20" as="geometry" />
        </mxCell>
        <mxCell id="wvHNVq-SnZiuIiHJVOZg-37" value="max" style="text;html=1;align=center;verticalAlign=middle;resizable=0;points=[];autosize=1;strokeColor=none;" vertex="1" parent="1">
          <mxGeometry x="220" y="60" width="40" height="20" as="geometry" />
        </mxCell>
      </root>
    </mxGraphModel>
  </diagram>
</mxfile>
